<svg xmlns="http://www.w3.org/2000/svg" height="1024" preserveAspectRatio="none" style="display: block;" version="1.1" viewBox="0 0 2048 2048" width="1024">
<path d="M 0 0 L 2048 0 L 2048 2048 L 0 2048 L 0 0 z" fill="rgb(26,26,26)" transform="translate(0,0)"></path>
<path d="M 1009.56 707.423 C 1013.33 707.027 1017.75 707.08 1021.64 706.983 C 1063.78 705.925 1122.51 713.331 1154.57 743.499 C 1168.29 756.701 1174.93 773.494 1174.86 792.345 C 1174.79 832.333 1174.7 871.995 1174.97 912.01 C 1175.15 938.272 1169.38 964.023 1149.47 982.616 C 1121.04 1009.17 1081.48 1003.21 1045.2 1003.14 L 925.132 1002.83 C 913.3 1002.79 900.609 1002.63 890.074 1008.4 C 831.326 1040.6 838.599 1120.47 838.883 1174.13 L 766.71 1174.24 C 755.948 1162.76 750.047 1155.49 742.094 1142.17 C 712.869 1091.14 709.347 1028.34 719.673 970.76 C 725.128 940.342 748.711 872.449 788.067 868.486 C 809.187 866.36 840.118 868.502 862.068 868.207 C 904.247 867.641 946.913 868.707 989.138 868.269 C 1000.1 867.32 1027.1 872.185 1035.83 864.858 C 1047.51 855.049 1039.5 837.902 1023.87 837.486 C 1007.17 837.041 991.512 837.729 975.255 837.738 L 871.545 837.205 C 871.653 822.959 871.582 808.525 871.301 794.296 C 870.981 778.145 869.762 766.475 881.883 753.712 C 915.463 718.352 963.281 710.849 1009.56 707.423 z" fill="rgb(236,236,235)" transform="translate(0,0)"></path>
<path d="M 928.88 746.006 C 938.622 744.066 948.651 747.545 955.098 755.102 C 961.545 762.658 963.402 773.11 959.953 782.425 C 956.503 791.739 948.286 798.461 938.473 799.995 C 923.728 802.301 909.847 792.392 907.236 777.698 C 904.625 763.005 914.244 748.921 928.88 746.006 z" fill="rgb(26,26,26)" transform="translate(0,0)"></path>
<path d="M 1209.16 868.132 C 1233.82 868.086 1258.47 868.212 1283.13 868.508 C 1285.2 870.385 1287.17 872.371 1289.03 874.456 C 1325.9 915.853 1335.21 975.799 1332.48 1030.1 C 1330.52 1075.32 1310.49 1143.35 1266.89 1165.24 C 1254.02 1171.71 1199.45 1169.68 1182.05 1169.68 L 1051.59 1169.26 C 1036.32 1169.16 996.275 1162.39 1004.33 1191.88 C 1005.8 1197.28 1014.84 1202.07 1020.2 1202.27 C 1036.02 1202.83 1052.16 1202.51 1068.07 1202.48 C 1103.4 1202.26 1138.74 1202.42 1174.07 1202.96 C 1173.83 1224.79 1175.72 1252.82 1173.13 1274.34 C 1171.6 1287.01 1151.63 1299.68 1140.5 1305.91 C 1106.11 1325.18 1057.41 1333.07 1017.57 1333.12 C 970.585 1333.18 881.106 1318.63 872.224 1259.78 C 870.599 1249.01 871.853 1221.85 871.879 1210.25 L 872.061 1151.7 C 872.194 1117.86 869.534 1081.93 895.978 1056.02 C 906.154 1046.24 918.868 1039.5 932.677 1036.57 C 946.589 1033.57 987.211 1034.67 1003.93 1034.66 L 1133.99 1034.6 C 1179.45 1034.72 1208.52 978.598 1208.99 938.625 C 1209.26 915.137 1209.24 891.624 1209.16 868.132 z" fill="rgb(12,165,215)" transform="translate(0,0)"></path>
<path d="M 1119.74 1231.36 C 1134.48 1228.12 1149.05 1237.47 1152.26 1252.22 C 1155.46 1266.96 1146.08 1281.51 1131.32 1284.68 C 1116.62 1287.83 1102.13 1278.49 1098.94 1263.79 C 1095.75 1249.09 1105.05 1234.59 1119.74 1231.36 z" fill="rgb(26,26,26)" transform="translate(0,0)"></path>
<path d="M 796.989 605.495 L 918.035 605.328 C 927.134 605.329 976.04 604.762 981.057 606.909 C 1015.81 621.785 1060.59 651.817 1090.39 674.002 C 1042.32 667.02 995.359 665.523 947.625 676.605 C 935.314 679.463 919.482 687.616 907.404 688.533 C 895.563 689.432 881.028 688.699 868.921 688.625 L 798.612 688.592 C 784.437 688.618 769.045 687.911 755.34 691.266 C 740.491 694.786 726.885 702.292 715.989 712.976 C 706.46 722.255 699.614 733.934 696.175 746.781 C 691.836 763.158 693.127 794.198 693.121 812.356 L 693.094 890.25 C 693.404 917.072 687.311 927.861 681.723 953.494 C 676.754 976.286 674.875 996.964 675.008 1020.28 C 659.138 1039.83 642.599 1058.93 628.475 1079.78 C 622.802 1088.16 617.042 1096.43 610.946 1104.51 L 611.354 868.083 L 611.226 794.834 C 611.207 781.548 611.249 768.387 611.54 755.235 C 613.063 686.293 663.165 626.288 730.001 610.498 C 753.138 605.031 773.529 605.686 796.989 605.495 z" fill="rgb(12,165,215)" transform="translate(0,0)"></path>
<path d="M 678.446 1078.73 C 681.657 1082.32 682.635 1095.49 684.672 1100.22 C 695.522 1125.36 693.587 1143.88 693.494 1170.91 L 693.133 1249.04 C 693.051 1264.93 691.996 1283.3 695.679 1298.61 C 698.812 1312.14 705.637 1324.53 715.394 1334.41 C 726.108 1345.31 739.615 1353.05 754.436 1356.79 C 768.894 1360.42 796.794 1359.35 812.904 1359.33 C 838.849 1359.21 864.795 1359.23 890.739 1359.39 C 929.556 1398.13 950.444 1413.84 998.007 1440.65 C 977.601 1441.4 952.593 1440.78 931.836 1440.76 L 775.479 1440.93 C 688.497 1440.53 619.125 1384.37 611.389 1295.06 C 610.054 1279.64 610.892 1262.6 610.936 1247.01 L 611.174 1174.81 C 625.079 1151.49 661.202 1096.96 678.446 1078.73 z" fill="rgb(236,236,235)" transform="translate(0,0)"></path>
<path d="M 1058.16 606.17 C 1088.95 605.197 1120.9 606.434 1151.78 606.184 C 1194.11 605.842 1236.72 606.425 1279.01 606.039 C 1320.69 605.659 1364.97 621.972 1393.74 652.604 C 1444.39 705.276 1438.37 757.887 1437.42 824.311 C 1424.26 841.975 1408.2 859.479 1394.21 878.067 C 1382.81 893.455 1371.13 909.281 1360.86 925.403 C 1353.86 905.83 1355.81 893.656 1355.95 873.04 L 1355.91 809.753 C 1355.97 773.165 1360.79 740.284 1333.65 712.175 C 1324.03 702.117 1311.86 694.849 1298.44 691.14 C 1280.63 686.232 1251.48 687.822 1232.25 687.718 L 1161.96 687.082 C 1122.29 649.035 1106.6 634.587 1058.16 606.17 z" fill="rgb(236,236,235)" transform="translate(0,0)"></path>
<path d="M 1436.44 888.753 C 1438.86 891.522 1437.94 1007.02 1437.94 1020.67 L 1437.85 1269.36 C 1420.54 1261.11 1402.56 1250.87 1385.65 1241.6 C 1375.57 1235.83 1365.36 1230.29 1355.02 1225 L 1355.15 1156.27 C 1355.26 1120.39 1354.58 1116.95 1364.97 1083.5 C 1371.46 1062.62 1374.65 1003.49 1371.05 981.516 C 1379.63 963.704 1422.57 903.953 1436.44 888.753 z" fill="rgb(12,165,215)" transform="translate(0,0)"></path>
<path d="M 1246.39 1219.04 C 1306.24 1251.98 1364.99 1289.1 1424.28 1321.32 C 1399.98 1323.84 1364.08 1328.46 1340.02 1329.2 C 1374.17 1369.83 1411.33 1413.92 1444.19 1455.34 C 1431.25 1464.95 1418.38 1474.66 1405.58 1484.47 C 1369.82 1440.17 1334.71 1395.35 1300.28 1350.01 C 1289.85 1366.81 1279.56 1383.7 1269.43 1400.68 C 1263.62 1410.33 1253.78 1426.13 1249.13 1436.14 C 1248.62 1436.72 1247.91 1437.07 1247.28 1437.5 C 1245.49 1433.71 1246.76 1407.45 1246.94 1401.48 C 1246.44 1393.62 1246.72 1385.99 1246.62 1378.14 C 1245.97 1325.14 1247.02 1272.03 1246.39 1219.04 z" fill="rgb(236,236,235)" transform="translate(0,0)"></path>
<path d="M 1110.44 1359.19 C 1130.76 1357.75 1166.05 1358.69 1187.27 1358.65 L 1187.36 1440.99 C 1164.77 1440.71 1142.18 1440.64 1119.59 1440.77 C 1105.51 1440.85 1083.93 1441.85 1070.21 1439.71 C 1065.15 1438.92 1047.91 1428.36 1042.48 1425.18 C 1013.44 1407.27 978.94 1386.74 953.846 1364.23 C 1008.41 1375.51 1056.86 1371.68 1110.44 1359.19 z" fill="rgb(12,165,215)" transform="translate(0,0)"></path>
<metadata><recraft-signature>{"signed_by": "recraft", "signature_b64": "z1g128JinKavc7MDGXOlB+mGdLCz4NEVLLihNo8LETzINfo/V8YnsDLdeWtKGJ74mKw98y6wMY1Ny5LTcB/nCQ==", "signing_algo": "Ed25519", "generation_timestamp": 1771992308, "identifier": "bb3e5e3d-966a-4c4e-a44b-6d57020a8d41"}</recraft-signature></metadata></svg>